<svg xmlns="http://www.w3.org/2000/svg" xmlns:xlink="http://www.w3.org/1999/xlink" id="Camada_1" x="0px" y="0px" viewBox="0 0 300 300" style="enable-background:new 0 0 300 300;" xml:space="preserve"><g>	<path d="M16.29,181.02c6.95-0.03,13.89-0.08,20.84-0.08c23.02-0.01,46.04,0,69.05,0c1.03,0,2.06,0,3.47,0   c-0.6,15.34,4.5,28.06,17.11,37.12c7.84,5.63,16.73,7.94,26.32,7.17c19.87-1.6,38.31-18.77,36.87-44.08c30.97,0,61.92,0,93.06,0   c0,2.75,0,5.56,0,8.65c-28.14,0-56.24,0-84.51,0c-1.74,14.55-8.19,26.26-19.8,34.88c-9.17,6.81-19.56,9.87-30.99,9.52   c-20.05-0.6-43.34-15.74-46.84-44.16c-0.29-0.06-0.61-0.19-0.94-0.19c-27.88,0.01-55.76,0.02-83.64,0.04   C16.29,186.93,16.29,183.97,16.29,181.02z"></path>	<path d="M149.51,216.46c-18.07-0.13-32.19-15.8-30.82-33.79c1.04-13.6,5.2-26.36,9.85-38.97c12.32-33.42,27.53-65.56,43.48-97.36   c1.45-2.89,3.38-3.84,5.81-3.03c2.42,0.81,3.2,2.6,2.8,5.91c-2.17,17.83-4.69,35.63-6.36,53.51c-1.98,21.11-0.96,42.1,3.77,62.92   c1.72,7.54,2.85,15.53,2.36,23.19C179.36,204.68,165.39,216.57,149.51,216.46z M167.53,76.98c-0.15-0.05-0.3-0.1-0.46-0.14   c-0.16,0.28-0.35,0.55-0.49,0.84c-10.88,23.35-21.71,46.72-30.37,71.02c-3.96,11.1-7.81,22.27-8.59,34.2   c-0.55,8.43,2.28,15.41,9.15,20.39c6.7,4.85,14.17,5.67,21.71,2.38c7.61-3.32,12.66-9.28,13.01-17.7   c0.25-6.24-0.45-12.71-1.87-18.8c-5.69-24.4-6.19-49.01-3.9-73.8C166.3,89.23,166.93,83.1,167.53,76.98z"></path>	<path d="M60.68,225.69c-0.2,9.82-8.18,17.55-17.97,17.4c-9.73-0.14-17.69-8.29-17.53-17.92c0.17-9.83,8.43-17.81,18.18-17.56   C53.15,207.87,60.88,215.94,60.68,225.69z M51.8,225.43c0.04-4.97-3.95-8.98-8.89-8.95c-4.77,0.03-8.8,4.04-8.84,8.81   c-0.04,4.78,3.91,8.83,8.7,8.91C47.78,234.3,51.77,230.43,51.8,225.43z"></path>	<path d="M256.62,243.1c-9.78,0.07-17.72-7.74-17.83-17.54c-0.12-9.85,7.88-17.95,17.72-17.95c9.68,0,17.74,8.03,17.78,17.71   C274.33,234.99,266.35,243.03,256.62,243.1z M256.54,234.21c4.82-0.01,8.8-3.95,8.86-8.75c0.07-4.85-4.06-9-8.94-8.98   c-4.84,0.02-8.76,3.94-8.79,8.79C247.64,230.29,251.55,234.23,256.54,234.21z"></path>	<path d="M83.17,198.73c7.29,0.07,13.24,6.13,13.16,13.38c-0.08,7.43-6.18,13.35-13.6,13.21c-7.27-0.14-13.2-6.3-13.02-13.52   C69.89,204.44,75.84,198.66,83.17,198.73z M82.92,216.42c2.34,0.05,4.31-1.81,4.42-4.18c0.12-2.48-1.79-4.56-4.24-4.61   c-2.35-0.05-4.32,1.81-4.42,4.18C78.56,214.28,80.48,216.37,82.92,216.42z"></path>	<path d="M216.56,198.73c7.29,0.05,13.26,6.05,13.22,13.33c-0.03,7.4-6.14,13.38-13.55,13.27c-7.27-0.11-13.22-6.23-13.08-13.47   C203.29,204.52,209.25,198.68,216.56,198.73z M220.82,211.97c-0.03-2.36-1.94-4.29-4.28-4.34c-2.44-0.04-4.46,1.99-4.43,4.45   c0.03,2.35,1.96,4.3,4.28,4.34C218.82,216.47,220.85,214.43,220.82,211.97z"></path>	<path d="M96.43,243.25c-0.04-7.38,5.75-13.27,13.12-13.36c7.41-0.08,13.54,5.96,13.51,13.31c-0.03,7.22-6.11,13.29-13.33,13.31   C102.48,256.54,96.48,250.56,96.43,243.25z M109.71,238.82c-2.52,0-4.42,1.95-4.36,4.47c0.05,2.33,2.03,4.28,4.34,4.29   c2.39,0,4.48-2.15,4.4-4.53C114.02,240.7,112.07,238.82,109.71,238.82z"></path>	<path d="M189.79,229.89c7.37,0.01,13.22,5.85,13.25,13.23c0.03,7.31-5.85,13.3-13.16,13.4c-7.26,0.1-13.55-6.18-13.47-13.44   C176.5,235.78,182.48,229.88,189.79,229.89z M189.67,247.58c2.3,0.06,4.34-1.86,4.44-4.19c0.11-2.53-1.73-4.52-4.24-4.57   c-2.37-0.05-4.34,1.75-4.48,4.11C185.25,245.3,187.3,247.52,189.67,247.58z"></path></g></svg>