<svg xmlns="http://www.w3.org/2000/svg" xmlns:xlink="http://www.w3.org/1999/xlink" id="Camada_1" x="0px" y="0px" viewBox="0 0 300 300" style="enable-background:new 0 0 300 300;" xml:space="preserve"><g>	<path d="M235.95,280.74c-57.11,0-114.21,0-171.32,0c-2.11-0.57-4.25-1.04-6.32-1.74c-13.6-4.61-22.41-16.86-22.44-31.65   c-0.07-42.98-0.03-85.96-0.02-128.94c0-0.85,0.04-1.7,0.11-2.54c0.99-12.02,6.91-20.9,17.32-26.82c4.98-2.83,10.44-3.95,16.14-3.97   c2.85-0.01,5.71,0,8.55,0c0-5.47,0-10.53,0-15.83c-6.08,0-11.99,0-18.06,0c0-16.59,0-32.94,0-49.38c61.6,0,123.05,0,184.58,0   c0,16.48,0,32.81,0,49.39c-7.34,0-14.53,0-21.86,0c0,5.35,0,10.46,0,15.82c3.05,0,5.92-0.02,8.79,0   c5.79,0.05,11.33,1.25,16.33,4.21c11.44,6.75,17,16.87,16.99,30.14c-0.02,42.3-0.01,84.6-0.01,126.9c0,1.19-0.04,2.38-0.11,3.56   c-0.87,13.76-10.1,25.4-23.33,29.4C239.53,279.82,237.73,280.26,235.95,280.74z M93.81,100.8c-8.24,0-16.05-0.01-23.86,0   c-11.06,0.01-18.44,7.27-18.45,18.31c-0.03,42.56-0.03,85.11,0,127.67c0.01,10.92,7.35,18.21,18.26,18.21   c53.69,0.01,107.38,0.01,161.08-0.01c1.44,0,2.91-0.03,4.3-0.32c8.6-1.8,13.94-8.74,13.95-18.15c0.02-33.81,0.01-67.61,0.01-101.42   c0-8.75,0.05-17.5-0.02-26.25c-0.09-10.72-7.49-18.02-18.21-18.04c-6.03-0.01-12.06,0-18.1,0c-1.93,0-3.85,0-6.1,0   c0-10.69,0-21.08,0-31.43c-37.76,0-75.19,0-112.86,0C93.81,79.86,93.81,90.18,93.81,100.8z M228.8,35.61   c-51.22,0-102.15,0-153.16,0c0,6.01,0,11.88,0,17.78c51.15,0,102.09,0,153.16,0C228.8,47.42,228.8,41.6,228.8,35.61z"></path>	<path d="M169.23,116.54c19.14-0.04,33.11,9.14,39.22,23.46c6.11,14.31,3.2,30.92-7.76,42.03c-15.2,15.43-30.49,30.78-45.95,45.95   c-15.2,14.91-39.5,14.63-54.39-0.34c-15.06-15.14-15.19-39.34-0.12-54.57c14.99-15.16,30.11-30.2,45.22-45.23   C152.97,120.37,162.11,116.64,169.23,116.54z M172.34,188.25c5.47-5.47,11.11-10.98,16.61-16.63c9.16-9.41,9.17-23.7,0.12-32.72   c-9.02-8.99-23.32-8.9-32.73,0.28c-5.04,4.92-9.98,9.96-14.96,14.94c-0.59,0.59-1.14,1.21-1.52,1.63   C150.73,166.62,161.46,177.36,172.34,188.25z M128.87,167.61c-6.45,6.2-13.12,12.03-19.09,18.5c-4.82,5.22-6,11.94-4.51,18.86   c1.86,8.67,7.14,14.58,15.62,17.21c8.44,2.61,16.2,0.88,22.65-5.23c5.74-5.42,11.21-11.12,16.79-16.71   c0.21-0.22,0.32-0.54,0.44-0.74C149.99,188.71,139.3,178.03,128.87,167.61z"></path></g></svg>